<?xml version="1.0" standalone="no"?>
<!DOCTYPE svg PUBLIC "-//W3C//DTD SVG 20010904//EN"
 "http://www.w3.org/TR/2001/REC-SVG-20010904/DTD/svg10.dtd">
<svg version="1.0" xmlns="http://www.w3.org/2000/svg"
 width="150.000000pt" height="150.000000pt" viewBox="0 0 150.000000 150.000000"
 preserveAspectRatio="xMidYMid meet">
<metadata>
Created by potrace 1.11, written by Peter Selinger 2001-2013
</metadata>
<g transform="translate(0.000000,150.000000) scale(0.100000,-0.100000)"
fill="#000000" stroke="none">
<path d="M0 750 l0 -750 750 0 750 0 0 750 0 750 -750 0 -750 0 0 -750z m602
215 l3 -335 27 -27 c24 -23 38 -28 98 -31 l70 -4 0 366 0 366 175 0 175 0 0
-365 0 -365 55 0 55 0 -2 -177 -3 -178 -290 -3 c-187 -2 -311 1 -350 8 -132
25 -257 126 -323 259 l-37 75 -3 373 -3 373 175 0 175 0 3 -335z"/>
</g>
</svg>
