<?xml version="1.0" standalone="no"?>
<!DOCTYPE svg PUBLIC "-//W3C//DTD SVG 20010904//EN"
 "http://www.w3.org/TR/2001/REC-SVG-20010904/DTD/svg10.dtd">
<svg version="1.0" xmlns="http://www.w3.org/2000/svg"
 width="150.000000pt" height="150.000000pt" viewBox="0 0 150.000000 150.000000"
 preserveAspectRatio="xMidYMid meet">
<metadata>
Created by potrace 1.11, written by Peter Selinger 2001-2013
</metadata>
<g transform="translate(0.000000,150.000000) scale(0.100000,-0.100000)"
fill="#000000" stroke="none">
<path d="M441 1238 c-96 -15 -175 -82 -198 -169 -15 -54 -8 -140 15 -185 31
-60 87 -105 198 -158 118 -57 144 -78 144 -121 0 -34 -20 -58 -59 -70 -43 -13
-135 -6 -200 15 -35 12 -67 18 -71 13 -4 -4 -20 -41 -34 -81 l-26 -73 25 -9
c150 -57 334 -60 430 -7 90 50 136 140 128 252 -8 106 -66 171 -217 245 -126
61 -148 79 -148 115 0 68 105 88 228 45 29 -10 56 -15 61 -11 6 3 19 31 31 61
11 30 23 63 27 72 19 47 -189 88 -334 66z"/>
<path d="M850 915 l0 -55 84 0 84 0 0 -227 c0 -126 1 -234 1 -240 1 -9 21 -13
66 -13 l65 0 1 38 c0 20 0 128 1 240 l0 202 84 0 84 0 0 55 0 55 -235 0 -235
0 0 -55z"/>
</g>
</svg>
